<svg xmlns="http://www.w3.org/2000/svg" width="48" height="48" viewBox="0 0 48 48" fill="none"><defs><linearGradient id="ug-main" x1="0" y1="0" x2="1" y2="1"><stop offset="0" stop-color="#2e6bff" stop-opacity="1"/><stop offset="0.55" stop-color="#7c3aed" stop-opacity="1"/><stop offset="1" stop-color="#22d3ee" stop-opacity="1"/></linearGradient></defs><defs><radialGradient id="ug-glow" cx="35%" cy="30%" r="75%"><stop offset="0" stop-color="#7ae7ff" stop-opacity="0.85"/><stop offset="1" stop-color="#22d3ee" stop-opacity="0"/></radialGradient></defs><defs><linearGradient id="ug-gold" x1="0" y1="0" x2="1" y2="1"><stop offset="0" stop-color="#ffe9b0" stop-opacity="1"/><stop offset="0.5" stop-color="#ffc24d" stop-opacity="1"/><stop offset="1" stop-color="#f59e0b" stop-opacity="1"/></linearGradient></defs><defs><linearGradient id="ug-violet" x1="0" y1="0" x2="1" y2="1"><stop offset="0" stop-color="#a78bfa" stop-opacity="1"/><stop offset="1" stop-color="#7c3aed" stop-opacity="1"/></linearGradient></defs><defs><linearGradient id="ug-navy" x1="0" y1="0" x2="1" y2="1"><stop offset="0" stop-color="#16243f" stop-opacity="1"/><stop offset="1" stop-color="#0a1220" stop-opacity="1"/></linearGradient></defs><defs><linearGradient id="ug-glass" x1="0" y1="0" x2="1" y2="1"><stop offset="0" stop-color="#ffffff" stop-opacity="0.16"/><stop offset="1" stop-color="#ffffff" stop-opacity="0.04"/></linearGradient></defs><defs><linearGradient id="ug-rose" x1="0" y1="0" x2="1" y2="1"><stop offset="0" stop-color="#ff6b9d" stop-opacity="1"/><stop offset="1" stop-color="#e11d48" stop-opacity="1"/></linearGradient></defs><defs><linearGradient id="ug-bg" x1="0" y1="0" x2="1" y2="1"><stop offset="0" stop-color="#0a1220" stop-opacity="1"/><stop offset="0.55" stop-color="#0f1c33" stop-opacity="1"/><stop offset="1" stop-color="#050914" stop-opacity="1"/></linearGradient></defs><defs><radialGradient id="ug-orbs" cx="35%" cy="30%" r="75%"><stop offset="0" stop-color="#7c3aed" stop-opacity="0.6"/><stop offset="1" stop-color="#7c3aed" stop-opacity="0"/></radialGradient></defs><path d="M8 16a14 14 0 0 1 28 0l2 36H6l2-36Z" fill="url(#ug-main)" fill-opacity="0.2" stroke="url(#ug-main)" stroke-width="2.4"/><path d="M15 18c1.7-4.6 5.2-7 9.4-7 5.8 0 9.4 4.6 10.5 11" stroke="url(#ug-main)" stroke-width="2.6" stroke-linecap="round"/><circle cx="24" cy="18" r="3.4" fill="#eef2ff"/></svg>