<svg width="40" height="40" viewBox="0 0 40 40" fill="none" xmlns="http://www.w3.org/2000/svg">
<rect width="40" height="40" rx="20" fill="url(#paint0_linear_2041_1427)"/>
<path d="M23.0289 12.2982C22.1966 11.8164 21.2064 11.689 20.2793 11.9374L13.4488 13.7676C11.5121 14.2866 10.3689 16.2677 10.8858 18.1967L12.3494 23.6589C12.8663 25.588 14.8538 26.7302 16.7835 26.2131L23.614 24.3829C25.5438 23.8658 26.6946 21.8827 26.1777 19.9536L24.7141 14.4914C24.4658 13.5649 23.8616 12.7783 23.0289 12.2982" fill="url(#paint1_linear_2041_1427)"/>
<g filter="url(#filter0_f_2041_1427)">
<path d="M21.1367 14.0947C20.6115 13.7727 19.9904 13.6812 19.4118 13.8363L15.1491 14.9785C13.9405 15.3023 13.2407 16.5894 13.5801 17.856L14.541 21.4423C14.8804 22.7088 16.1344 23.4724 17.3386 23.1498L21.6013 22.0076C22.8056 21.6849 23.5102 20.3965 23.1708 19.1299L22.2098 15.5436C22.0468 14.9353 21.662 14.4157 21.1367 14.0947" fill="white"/>
</g>
<foreignObject x="11.5162" y="11.5875" width="22.24" height="20.6423"><div xmlns="http://www.w3.org/1999/xhtml" style="backdrop-filter:blur(1.47px);clip-path:url(#bgblur_0_2041_1427_clip_path);height:100%;width:100%"></div></foreignObject><g data-figma-bg-blur-radius="2.93493">
<mask id="path-4-outside-1_2041_1427" maskUnits="userSpaceOnUse" x="13.6465" y="13.7178" width="18" height="16" fill="black">
<rect fill="white" x="13.6465" y="13.7178" width="18" height="16"/>
<path d="M29.4423 15.901C28.6841 15.1412 27.6534 14.7178 26.582 14.7178H18.6892C16.4513 14.7178 14.6465 16.5234 14.6465 18.7525V25.0642C14.6465 27.2933 16.4593 29.0989 18.6892 29.0989H26.582C28.8119 29.0989 30.6255 27.2933 30.6255 25.0642V18.7525C30.6255 17.6819 30.2013 16.6592 29.4423 15.901"/>
</mask>
<path d="M29.4423 15.901C28.6841 15.1412 27.6534 14.7178 26.582 14.7178H18.6892C16.4513 14.7178 14.6465 16.5234 14.6465 18.7525V25.0642C14.6465 27.2933 16.4593 29.0989 18.6892 29.0989H26.582C28.8119 29.0989 30.6255 27.2933 30.6255 25.0642V18.7525C30.6255 17.6819 30.2013 16.6592 29.4423 15.901" fill="#D9D4D2" fill-opacity="0.4"/>
<path d="M29.3038 16.0392C29.3801 16.1157 29.504 16.1159 29.5805 16.0395C29.657 15.9632 29.6571 15.8393 29.5808 15.7628L29.4423 15.901L29.3038 16.0392ZM29.5806 15.7626C29.5041 15.6862 29.3802 15.6863 29.3039 15.7627C29.2275 15.8392 29.2276 15.9631 29.304 16.0394L29.4423 15.901L29.5806 15.7626ZM29.4423 15.901L29.5808 15.7628C28.7856 14.9659 27.7049 14.5221 26.582 14.5221V14.7178V14.9134C27.6019 14.9134 28.5826 15.3165 29.3038 16.0392L29.4423 15.901ZM26.582 14.7178V14.5221H18.6892V14.7178V14.9134H26.582V14.7178ZM18.6892 14.7178V14.5221C16.3435 14.5221 14.4508 16.4151 14.4508 18.7525H14.6465H14.8421C14.8421 16.6317 16.5592 14.9134 18.6892 14.9134V14.7178ZM14.6465 18.7525H14.4508V25.0642H14.6465H14.8421V18.7525H14.6465ZM14.6465 25.0642H14.4508C14.4508 27.4018 16.3517 29.2946 18.6892 29.2946V29.0989V28.9033C16.5669 28.9033 14.8421 27.1848 14.8421 25.0642H14.6465ZM18.6892 29.0989V29.2946H26.582V29.0989V28.9033H18.6892V29.0989ZM26.582 29.0989V29.2946C28.9195 29.2946 30.8212 27.4019 30.8212 25.0642H30.6255H30.4299C30.4299 27.1847 28.7044 28.9033 26.582 28.9033V29.0989ZM30.6255 25.0642H30.8212V18.7525H30.6255H30.4299V25.0642H30.6255ZM30.6255 18.7525H30.8212C30.8212 17.6299 30.3763 16.5574 29.5806 15.7626L29.4423 15.901L29.304 16.0394C30.0264 16.761 30.4299 17.7339 30.4299 18.7525H30.6255Z" fill="url(#paint2_linear_2041_1427)" mask="url(#path-4-outside-1_2041_1427)"/>
</g>
<foreignObject x="14.3287" y="15.9362" width="16.6658" height="10.3689"><div xmlns="http://www.w3.org/1999/xhtml" style="backdrop-filter:blur(1.47px);clip-path:url(#bgblur_1_2041_1427_clip_path);height:100%;width:100%"></div></foreignObject><g filter="url(#filter2_d_2041_1427)" data-figma-bg-blur-radius="2.93493">
<mask id="path-6-inside-2_2041_1427" fill="white">
<path d="M27.9173 19.8787L27.8534 19.9426L24.2494 22.8268C23.8027 23.1783 23.2507 23.3701 22.6842 23.3701C22.1161 23.3701 21.5737 23.1783 21.1262 22.8268L17.491 19.9905L17.3863 19.8867C17.2034 19.647 17.2274 19.3034 17.4431 19.0877C17.65 18.872 17.9935 18.848 18.242 19.0318L21.8373 21.908C22.3079 22.2923 22.9718 22.2923 23.4352 21.908L27.0377 19.0318C27.1583 18.9199 27.3181 18.8632 27.4859 18.872C27.6449 18.888 27.7975 18.9607 27.9086 19.0797C28.1083 19.3114 28.1083 19.647 27.9173 19.8787"/>
</mask>
<path d="M27.9173 19.8787L27.8534 19.9426L24.2494 22.8268C23.8027 23.1783 23.2507 23.3701 22.6842 23.3701C22.1161 23.3701 21.5737 23.1783 21.1262 22.8268L17.491 19.9905L17.3863 19.8867C17.2034 19.647 17.2274 19.3034 17.4431 19.0877C17.65 18.872 17.9935 18.848 18.242 19.0318L21.8373 21.908C22.3079 22.2923 22.9718 22.2923 23.4352 21.908L27.0377 19.0318C27.1583 18.9199 27.3181 18.8632 27.4859 18.872C27.6449 18.888 27.7975 18.9607 27.9086 19.0797C28.1083 19.3114 28.1083 19.647 27.9173 19.8787" fill="white"/>
<path d="M27.8534 19.9426L27.878 19.9733L27.8811 19.9702L27.8534 19.9426ZM24.2494 22.8268L24.2736 22.8575L24.2738 22.8574L24.2494 22.8268ZM21.1262 22.8268L21.1504 22.796L21.1503 22.7959L21.1262 22.8268ZM17.491 19.9905L17.4632 20.0185L17.4669 20.0214L17.491 19.9905ZM17.3863 19.8867L17.3549 19.9106L17.3588 19.9144L17.3863 19.8867ZM17.4431 19.0877L17.4707 19.1154L17.4713 19.1148L17.4431 19.0877ZM18.242 19.0318L18.2665 19.0012L18.2653 19.0003L18.242 19.0318ZM21.8373 21.908L21.8621 21.8777L21.8618 21.8774L21.8373 21.908ZM23.4352 21.908L23.4108 21.8774L23.4102 21.8779L23.4352 21.908ZM27.0377 19.0318L27.0622 19.0624L27.0643 19.0605L27.0377 19.0318ZM27.4859 18.872L27.4898 18.833L27.488 18.8329L27.4859 18.872ZM27.9086 19.0797L27.9382 19.0541L27.9372 19.053L27.9086 19.0797ZM27.9173 19.8787L27.8897 19.851L27.8258 19.9149L27.8534 19.9426L27.8811 19.9702L27.945 19.9063L27.9173 19.8787ZM27.8534 19.9426L27.829 19.912L24.2249 22.7962L24.2494 22.8268L24.2738 22.8574L27.8779 19.9731L27.8534 19.9426ZM24.2494 22.8268L24.2251 22.7961C23.7854 23.1422 23.2418 23.331 22.6842 23.331V23.3701V23.4092C23.2595 23.4092 23.8201 23.2145 24.2736 22.8575L24.2494 22.8268ZM22.6842 23.3701V23.331C22.1251 23.331 21.5911 23.1423 21.1504 22.796L21.1262 22.8268L21.1021 22.8576C21.5562 23.2144 22.1072 23.4092 22.6842 23.4092V23.3701ZM21.1262 22.8268L21.1503 22.7959L17.5151 19.9597L17.491 19.9905L17.4669 20.0214L21.1022 22.8577L21.1262 22.8268ZM17.491 19.9905L17.5186 19.9627L17.4139 19.8589L17.3863 19.8867L17.3588 19.9144L17.4634 20.0183L17.491 19.9905ZM17.3863 19.8867L17.4174 19.8629C17.2465 19.639 17.2687 19.3174 17.4707 19.1154L17.4431 19.0877L17.4154 19.06C17.186 19.2894 17.1602 19.6549 17.3552 19.9104L17.3863 19.8867ZM17.4431 19.0877L17.4713 19.1148C17.6639 18.914 17.9853 18.8906 18.2188 19.0632L18.242 19.0318L18.2653 19.0003C18.0018 18.8055 17.6361 18.8299 17.4148 19.0606L17.4431 19.0877ZM18.242 19.0318L18.2176 19.0623L21.8129 21.9386L21.8373 21.908L21.8618 21.8774L18.2665 19.0012L18.242 19.0318ZM21.8373 21.908L21.8126 21.9383C22.2974 22.3343 22.9822 22.3345 23.4602 21.9381L23.4352 21.908L23.4102 21.8779C22.9614 22.2501 22.3184 22.2503 21.8621 21.8777L21.8373 21.908ZM23.4352 21.908L23.4596 21.9386L27.0621 19.0624L27.0377 19.0318L27.0133 19.0012L23.4108 21.8774L23.4352 21.908ZM27.0377 19.0318L27.0643 19.0605C27.177 18.956 27.3263 18.9028 27.4839 18.9111L27.4859 18.872L27.488 18.8329C27.3099 18.8236 27.1397 18.8838 27.0111 19.0031L27.0377 19.0318ZM27.4859 18.872L27.482 18.9109C27.6319 18.926 27.7756 18.9946 27.8799 19.1064L27.9086 19.0797L27.9372 19.053C27.8194 18.9268 27.6579 18.8499 27.4898 18.833L27.4859 18.872ZM27.9086 19.0797L27.8789 19.1053C28.0661 19.3224 28.0661 19.6366 27.8871 19.8538L27.9173 19.8787L27.9475 19.9035C28.1505 19.6573 28.1505 19.3005 27.9382 19.0542L27.9086 19.0797Z" fill="url(#paint3_linear_2041_1427)" fill-opacity="0.5" mask="url(#path-6-inside-2_2041_1427)"/>
</g>
<defs>
<filter id="filter0_f_2041_1427" x="10.3635" y="10.6321" width="16.0229" height="15.7221" filterUnits="userSpaceOnUse" color-interpolation-filters="sRGB">
<feFlood flood-opacity="0" result="BackgroundImageFix"/>
<feBlend mode="normal" in="SourceGraphic" in2="BackgroundImageFix" result="shape"/>
<feGaussianBlur stdDeviation="1.5653" result="effect1_foregroundBlur_2041_1427"/>
</filter>
<clipPath id="bgblur_0_2041_1427_clip_path" transform="translate(-11.5162 -11.5875)"><path d="M29.4423 15.901C28.6841 15.1412 27.6534 14.7178 26.582 14.7178H18.6892C16.4513 14.7178 14.6465 16.5234 14.6465 18.7525V25.0642C14.6465 27.2933 16.4593 29.0989 18.6892 29.0989H26.582C28.8119 29.0989 30.6255 27.2933 30.6255 25.0642V18.7525C30.6255 17.6819 30.2013 16.6592 29.4423 15.901"/>
</clipPath><filter id="filter2_d_2041_1427" x="14.3287" y="15.9362" width="16.6658" height="10.3689" filterUnits="userSpaceOnUse" color-interpolation-filters="sRGB">
<feFlood flood-opacity="0" result="BackgroundImageFix"/>
<feColorMatrix in="SourceAlpha" type="matrix" values="0 0 0 0 0 0 0 0 0 0 0 0 0 0 0 0 0 0 127 0" result="hardAlpha"/>
<feOffset dx="0.97831" dy="0.97831"/>
<feGaussianBlur stdDeviation="0.97831"/>
<feColorMatrix type="matrix" values="0 0 0 0 0.201923 0 0 0 0 0.201923 0 0 0 0 0.201923 0 0 0 0.5 0"/>
<feBlend mode="normal" in2="BackgroundImageFix" result="effect1_dropShadow_2041_1427"/>
<feBlend mode="normal" in="SourceGraphic" in2="effect1_dropShadow_2041_1427" result="shape"/>
</filter>
<clipPath id="bgblur_1_2041_1427_clip_path" transform="translate(-14.3287 -15.9362)"><path d="M27.9173 19.8787L27.8534 19.9426L24.2494 22.8268C23.8027 23.1783 23.2507 23.3701 22.6842 23.3701C22.1161 23.3701 21.5737 23.1783 21.1262 22.8268L17.491 19.9905L17.3863 19.8867C17.2034 19.647 17.2274 19.3034 17.4431 19.0877C17.65 18.872 17.9935 18.848 18.242 19.0318L21.8373 21.908C22.3079 22.2923 22.9718 22.2923 23.4352 21.908L27.0377 19.0318C27.1583 18.9199 27.3181 18.8632 27.4859 18.872C27.6449 18.888 27.7975 18.9607 27.9086 19.0797C28.1083 19.3114 28.1083 19.647 27.9173 19.8787"/>
</clipPath><linearGradient id="paint0_linear_2041_1427" x1="40.1633" y1="7.34668e-08" x2="-3.74455" y2="35.6617" gradientUnits="userSpaceOnUse">
<stop stop-color="#39AFFD"/>
<stop offset="1" stop-color="#477FFF"/>
</linearGradient>
<linearGradient id="paint1_linear_2041_1427" x1="19.7731" y1="19.6358" x2="9.82729" y2="29.0345" gradientUnits="userSpaceOnUse">
<stop stop-color="white"/>
<stop offset="1" stop-color="#EAE8E8"/>
</linearGradient>
<linearGradient id="paint2_linear_2041_1427" x1="17.1901" y1="16.3932" x2="26.1156" y2="28.676" gradientUnits="userSpaceOnUse">
<stop stop-color="white" stop-opacity="0.25"/>
<stop offset="1" stop-color="white" stop-opacity="0"/>
</linearGradient>
<linearGradient id="paint3_linear_2041_1427" x1="27.5969" y1="21.2158" x2="17.1868" y2="22.2564" gradientUnits="userSpaceOnUse">
<stop stop-color="white"/>
<stop offset="1" stop-color="white" stop-opacity="0"/>
</linearGradient>
</defs>
</svg>
