<svg xmlns="http://www.w3.org/2000/svg" width="24" height="24" viewBox="0 0 24 24" fill="none"><defs><linearGradient id="ug-main" x1="0" y1="0" x2="1" y2="1"><stop offset="0" stop-color="#2e6bff" stop-opacity="1"/><stop offset="0.55" stop-color="#7c3aed" stop-opacity="1"/><stop offset="1" stop-color="#22d3ee" stop-opacity="1"/></linearGradient></defs><defs><radialGradient id="ug-glow" cx="35%" cy="30%" r="75%"><stop offset="0" stop-color="#7ae7ff" stop-opacity="0.85"/><stop offset="1" stop-color="#22d3ee" stop-opacity="0"/></radialGradient></defs><defs><linearGradient id="ug-gold" x1="0" y1="0" x2="1" y2="1"><stop offset="0" stop-color="#ffe9b0" stop-opacity="1"/><stop offset="0.5" stop-color="#ffc24d" stop-opacity="1"/><stop offset="1" stop-color="#f59e0b" stop-opacity="1"/></linearGradient></defs><defs><linearGradient id="ug-violet" x1="0" y1="0" x2="1" y2="1"><stop offset="0" stop-color="#a78bfa" stop-opacity="1"/><stop offset="1" stop-color="#7c3aed" stop-opacity="1"/></linearGradient></defs><defs><linearGradient id="ug-navy" x1="0" y1="0" x2="1" y2="1"><stop offset="0" stop-color="#16243f" stop-opacity="1"/><stop offset="1" stop-color="#0a1220" stop-opacity="1"/></linearGradient></defs><defs><linearGradient id="ug-glass" x1="0" y1="0" x2="1" y2="1"><stop offset="0" stop-color="#ffffff" stop-opacity="0.16"/><stop offset="1" stop-color="#ffffff" stop-opacity="0.04"/></linearGradient></defs><defs><linearGradient id="ug-rose" x1="0" y1="0" x2="1" y2="1"><stop offset="0" stop-color="#ff6b9d" stop-opacity="1"/><stop offset="1" stop-color="#e11d48" stop-opacity="1"/></linearGradient></defs><defs><linearGradient id="ug-bg" x1="0" y1="0" x2="1" y2="1"><stop offset="0" stop-color="#0a1220" stop-opacity="1"/><stop offset="0.55" stop-color="#0f1c33" stop-opacity="1"/><stop offset="1" stop-color="#050914" stop-opacity="1"/></linearGradient></defs><defs><radialGradient id="ug-orbs" cx="35%" cy="30%" r="75%"><stop offset="0" stop-color="#7c3aed" stop-opacity="0.6"/><stop offset="1" stop-color="#7c3aed" stop-opacity="0"/></radialGradient></defs>
<path d="M14 7H5a1.8 1.8 0 0 1 0-3.6h11.4V5M14 7l-1.6 9.4a1.8 1.8 0 0 1-1.8 1.6H6.3A1.8 1.8 0 0 1 4.5 16L6.1 7M18 8.5h1.2a1.8 1.8 0 0 1 1.8 1.8v3.4a1.8 1.8 0 0 1-1.8 1.8H18a1.9 1.9 0 0 1 0-3.8 1.9 1.9 0 0 1 0-3.8" stroke="#8fa3c8" stroke-width="1.7" stroke-linecap="round" stroke-linejoin="round" fill="none"/>
<path d="M14 7H5a1.8 1.8 0 0 1 0-3.6h11.4V5M14 7l-1.6 9.4a1.8 1.8 0 0 1-1.8 1.6H6.3A1.8 1.8 0 0 1 4.5 16L6.1 7M18 8.5h1.2a1.8 1.8 0 0 1 1.8 1.8v3.4a1.8 1.8 0 0 1-1.8 1.8H18a1.9 1.9 0 0 1 0-3.8 1.9 1.9 0 0 1 0-3.8" stroke="url(#ug-main)" stroke-width="0.7" stroke-linecap="round" stroke-linejoin="round" fill="none" opacity="0.85"/></svg>